<svg width="60" height="60" viewBox="0 0 60 60" fill="none" xmlns="http://www.w3.org/2000/svg">
<path d="M29.9998 20.3906C28.2302 20.3866 26.5314 21.0847 25.2762 22.3319C24.021 23.5791 23.3114 25.2733 23.3037 27.0425H24.9239C24.9239 25.2291 25.8915 23.5537 27.4618 22.647C29.0324 21.7403 30.9671 21.7403 32.5377 22.647C34.108 23.5537 35.0756 25.2291 35.0756 27.0425C35.08 28.1347 34.7251 29.198 34.0651 30.0686C32.8093 31.7234 32.1241 33.7406 32.1132 35.8178C32.1182 36.5799 31.7167 37.2867 31.0595 37.6721C30.4019 38.0578 29.589 38.0632 28.9267 37.6868C28.264 37.3105 27.8526 36.6091 27.8475 35.847H26.227C26.2337 36.8424 26.6351 37.7947 27.3436 38.4937C28.0521 39.1932 29.0094 39.5822 30.0048 39.5759C30.9998 39.5695 31.9521 39.1677 32.6512 38.4593C33.3506 37.7508 33.7397 36.7939 33.7333 35.7985C33.738 34.0724 34.3012 32.3943 35.3391 31.0155C36.2103 29.8671 36.6801 28.4645 36.6764 27.0231C36.6634 25.2603 35.9545 23.5741 34.704 22.332C33.4534 21.0895 31.7626 20.3917 29.9997 20.3907L29.9998 20.3906Z" fill="black"/>
<path d="M29.3065 31.7765L30.917 31.9325V31.9328C31.0088 31.0272 31.4353 30.1881 32.113 29.5804C32.868 28.9004 33.2266 27.8838 33.0649 26.8804C32.9031 25.8773 32.2432 25.0248 31.3124 24.6167C30.3783 24.2052 29.2995 24.2912 28.4427 24.8464C27.5869 25.3955 27.0699 26.3427 27.0713 27.3595H28.6915C28.6928 26.8901 28.9309 26.4532 29.3246 26.197C29.718 25.9412 30.2142 25.9014 30.6438 26.0909C31.0768 26.2764 31.3845 26.6708 31.4595 27.1358C31.5348 27.6006 31.3671 28.0717 31.0148 28.3844C30.0442 29.264 29.4351 30.473 29.3065 31.7765Z" fill="black"/>
<path d="M17.4862 17.5327L16.3343 16.3906C13.9357 18.7659 12.209 21.7337 11.3301 24.9929C10.4512 28.252 10.4512 31.6857 11.3301 34.9443C12.209 38.2035 13.9356 41.1713 16.3343 43.5466L17.4862 42.4046C15.2874 40.2313 13.7044 37.5135 12.8985 34.5289C12.0922 31.544 12.0922 28.3989 12.8985 25.414C13.7044 22.4295 15.2874 19.7117 17.4862 17.5383V17.5327Z" fill="black"/>
<path d="M43.6655 16.3906L42.5137 17.5327C44.7175 19.7067 46.3046 22.4271 47.1124 25.4154C47.9203 28.4037 47.9203 31.5527 47.1124 34.5405C46.3045 37.5284 44.7175 40.2493 42.5137 42.4233L43.6655 43.5456C46.0632 41.1707 47.7891 38.2035 48.6677 34.945C49.5463 31.6869 49.5463 28.254 48.6677 24.9962C47.7891 21.7383 46.0631 18.7705 43.6655 16.3956V16.3906Z" fill="black"/>
<path d="M40.2487 19.7813L39.1019 20.9233H39.1016C41.5163 23.3123 42.8747 26.5678 42.8747 29.9645C42.8747 33.3611 41.5163 36.6167 39.1016 39.0056L40.2487 40.1283C42.047 38.3467 43.3414 36.1205 44.0004 33.6766C44.6593 31.2323 44.6593 28.6572 44.0004 26.2134C43.3415 23.7692 42.047 21.5434 40.2487 19.7617L40.2487 19.7813Z" fill="black"/>
<path d="M19.7508 19.7812C17.9565 21.5625 16.6651 23.7864 16.0078 26.2276C15.3503 28.6687 15.3503 31.2405 16.0078 33.6821C16.6651 36.1232 17.9565 38.3471 19.7508 40.1284L20.8976 38.9863H20.8979C18.4832 36.5974 17.1248 33.3416 17.1248 29.9452C17.1248 26.5484 18.4832 23.293 20.8979 20.904L19.7508 19.7812Z" fill="black"/>
</svg>
